<?xml version="1.0" standalone="no"?><!DOCTYPE svg PUBLIC "-//W3C//DTD SVG 1.1//EN" "http://www.w3.org/Graphics/SVG/1.1/DTD/svg11.dtd"><svg t="1615180903108" class="icon" viewBox="0 0 1024 1024" version="1.1" xmlns="http://www.w3.org/2000/svg" p-id="1991" xmlns:xlink="http://www.w3.org/1999/xlink" width="200" height="200"><defs><style type="text/css"></style></defs><path d="M305.6 773.3l475.8-358c6.3-4.7 10.5-11.7 11.7-19.5l35.8-233.1c3.1-20.1-14.2-37.5-34.3-34.4l-232.3 36c-7.8 1.2-14.7 5.4-19.4 11.7L186.2 653.5l-51.1-51.3c-3.6-3.7-9.7-2.9-12.4 1.5L81 673.1c-1.9 3.1-1.4 7.1 1.2 9.7l71.6 71.9-79.3 79.6c-14 14.1-14 37.1 0 51.1 14 14.1 36.9 14.1 50.9 0l79.3-79.6 71.6 71.9c2.6 2.6 6.6 3.1 9.7 1.2l69.1-41.8c4.4-2.7 5.2-8.8 1.5-12.4l-51-51.4z" p-id="1992" fill="#d7d7d8"></path><path d="M231.3 395.8c1.2 7.8 5.4 14.8 11.7 19.5l40.2 30.3c4.1 3.1 10 2.2 13.1-2l188.2-263.5-3-4.1c-4.7-6.3-11.7-10.5-19.4-11.7l-232.3-36c-20.1-3.1-37.3 14.2-34.3 34.4l35.8 233.1zM948.3 832.8l-77.8-78.1 71.6-71.9c2.6-2.6 3.1-6.6 1.2-9.7l-41.7-69.4c-2.7-4.4-8.8-5.2-12.4-1.5l-51.1 51.3-102-136.6c-3.9-5.2-11.2-6.2-16.4-2.4l-160 119.9c-6.3 4.7-6.3 14.1 0 18.8l159.1 120-51.1 51.3c-3.6 3.7-2.9 9.8 1.5 12.4l69.1 41.8c3.1 1.9 7.1 1.4 9.7-1.2l71.6-71.9 79.3 79.6c15.4 15.5 41.7 13.9 54.9-4.7 10.4-14.5 7.2-35-5.5-47.7z" p-id="1993" fill="#d7d7d8"></path></svg>