<?xml version="1.0" encoding="utf-8"?>
<!-- Generator: Adobe Illustrator 17.0.0, SVG Export Plug-In . SVG Version: 6.00 Build 0)  -->
<!DOCTYPE svg PUBLIC "-//W3C//DTD SVG 1.1//EN" "http://www.w3.org/Graphics/SVG/1.1/DTD/svg11.dtd">
<svg version="1.1" id="图层_1" xmlns="http://www.w3.org/2000/svg" xmlns:xlink="http://www.w3.org/1999/xlink" x="0px" y="0px"
	 width="128px" height="128px" viewBox="0 0 128 128" enable-background="new 0 0 128 128" xml:space="preserve">
<path fill="#9B9B9B" d="M68,32H28c-2.209,0-4-1.791-4-4s1.791-4,4-4h40c2.209,0,4,1.791,4,4S70.209,32,68,32z M36,72h-8
	c-2.209,0-4,1.791-4,4s1.791,4,4,4h8c2.209,0,4-1.791,4-4S38.209,72,36,72z M52.248,108c0,2.209-1.791,4-4,4H11.504
	c-1.932-0.009-3.495-1.572-3.504-3.504V3.504C8,1.576,9.576,0,11.896,0h76.296L112,24v12.256c-0.002,2.209-1.795,3.998-4.004,3.996
	c-2.209-0.002-3.998-1.795-3.996-4.004V32H80.192V8H16v96h32.248C50.457,104,52.248,105.791,52.248,108z M88,24h16L88,8V24z M36,56
	h-8c-2.209,0-4,1.791-4,4s1.791,4,4,4h8c2.209,0,4-1.791,4-4S38.209,56,36,56z M46,44c0-2.209-1.791-4-4-4H28c-2.209,0-4,1.791-4,4
	s1.791,4,4,4h14C44.209,48,46,46.209,46,44z M123.032,118.832c-1.979,1.723-4.981,1.515-6.704-0.464L98.936,98.424
	c-15.055,10.043-35.401,5.979-45.444-9.076s-5.979-35.401,9.076-45.444s35.401-5.979,45.444,9.076
	c3.595,5.39,5.512,11.725,5.508,18.204c0,7.92-2.928,15.096-7.616,20.76l17.6,20.176
	C125.226,114.104,125.015,117.108,123.032,118.832z M80.76,95.008c13.136,0,23.824-10.688,23.824-23.824S93.896,47.36,80.76,47.36
	c-13.144,0-23.824,10.688-23.824,23.824S67.616,95.008,80.76,95.008z"/>
</svg>
