<?xml version="1.0" standalone="no"?><!DOCTYPE svg PUBLIC "-//W3C//DTD SVG 1.1//EN" "http://www.w3.org/Graphics/SVG/1.1/DTD/svg11.dtd"><svg t="1612810384589" class="icon" viewBox="0 0 1024 1024" version="1.1" xmlns="http://www.w3.org/2000/svg" p-id="28072" xmlns:xlink="http://www.w3.org/1999/xlink" width="128" height="128"><defs><style type="text/css"></style></defs><path d="M674.944 146.7136l207.36 207.36a35.2 35.2 0 0 0 49.8688-49.6896L664.6528 36.864a35.072 35.072 0 0 0-59.776 21.504 20.736 20.736 0 0 0-0.1792 3.4304v900.4032a35.2256 35.2256 0 1 0 70.4256 0V146.7136zM358.4 986.1888L91.8784 719.6672a35.1232 35.1232 0 0 1 49.6896-49.664l207.104 207.36V61.7984a35.2256 35.2256 0 1 1 70.4256 0v900.4032a35.0208 35.0208 0 0 1-60.6976 23.9872z m0 0" p-id="28073" fill="#585959"></path></svg>