<?xml version="1.0" standalone="no"?><!DOCTYPE svg PUBLIC "-//W3C//DTD SVG 1.1//EN" "http://www.w3.org/Graphics/SVG/1.1/DTD/svg11.dtd"><svg t="1612811263796" class="icon" viewBox="0 0 1024 1024" version="1.1" xmlns="http://www.w3.org/2000/svg" p-id="30496" xmlns:xlink="http://www.w3.org/1999/xlink" width="128" height="128"><defs><style type="text/css"></style></defs><path d="M746.666667 512a234.666667 234.666667 0 1 1 0 469.333333 234.666667 234.666667 0 0 1 0-469.333333zM586.666667 85.333333A96 96 0 0 1 682.666667 181.333333v295.424a275.370667 275.370667 0 0 0-64 23.808V181.333333a32 32 0 0 0-32-32h-320a32 32 0 0 0-32 32v661.333334c0 17.664 14.336 32 32 32l233.941333 0.042666c12.245333 23.509333 27.776 45.056 45.952 64L266.666667 938.666667A96 96 0 0 1 170.666667 842.666667V181.333333A96 96 0 0 1 266.666667 85.333333h320z m160 511.914667a74.666667 74.666667 0 0 0-74.410667 68.565333l-0.256 6.101334v33.365333c-16.853333 4.309333-29.696 18.730667-31.701333 36.394667l-0.298667 4.906666v106.666667a42.666667 42.666667 0 0 0 37.674667 42.368l4.992 0.298667h128a42.666667 42.666667 0 0 0 42.368-37.674667l0.298666-4.992v-106.666667a42.666667 42.666667 0 0 0-27.477333-39.893333l-4.48-1.408-0.042667-33.365333a74.666667 74.666667 0 0 0-74.666666-74.666667z m-373.376 149.589333L469.333333 746.624c0 22.058667 2.56 43.52 7.424 64l-103.381333 0.213333a32 32 0 0 1-0.085333-64z m373.376-106.922666a32 32 0 0 1 31.701333 27.648l0.298667 4.352v32h-64v-32a32 32 0 0 1 32-32z" p-id="30497" fill="#bfbfbf"></path></svg>