<?xml version="1.0" encoding="utf-8"?>
<!-- Generator: Adobe Illustrator 17.0.0, SVG Export Plug-In . SVG Version: 6.00 Build 0)  -->
<!DOCTYPE svg PUBLIC "-//W3C//DTD SVG 1.1//EN" "http://www.w3.org/Graphics/SVG/1.1/DTD/svg11.dtd">
<svg version="1.1" id="图层_1" xmlns="http://www.w3.org/2000/svg" xmlns:xlink="http://www.w3.org/1999/xlink" x="0px" y="0px"
	 width="200px" height="200px" viewBox="0 0 200 200" enable-background="new 0 0 200 200" xml:space="preserve">
<path fill="#9B9B9B" d="M175.6,21.2H24.4c-7.68,0-14,6.32-14,14v103.2c0,7.68,6.32,14,14,14h41.2v14.4H48.4c-3.28,0-6,2.72-6,6
	s2.72,6,6,6h103.2c3.28,0,6-2.72,6-6s-2.72-6-6-6h-17.2v-14.4h41.2c7.68,0,14-6.32,14-14V35.2C189.6,27.52,183.28,21.2,175.6,21.2z
	 M24.4,33.2h151.2c1.12,0,2,0.88,2,2v69.2H22.4V35.2C22.4,34.08,23.28,33.2,24.4,33.2z M122.4,166.8H77.6v-14.4h44.8L122.4,166.8
	L122.4,166.8z M177.6,138.4c0,1.12-0.88,2-2,2H24.4c-1.12,0-2-0.88-2-2v-22h155.2L177.6,138.4L177.6,138.4z"/>
</svg>
