<?xml version="1.0" standalone="no"?><!DOCTYPE svg PUBLIC "-//W3C//DTD SVG 1.1//EN" "http://www.w3.org/Graphics/SVG/1.1/DTD/svg11.dtd"><svg t="1612803883971" class="icon" viewBox="0 0 1024 1024" version="1.1" xmlns="http://www.w3.org/2000/svg" p-id="2180" xmlns:xlink="http://www.w3.org/1999/xlink" width="128" height="128"><defs><style type="text/css"></style></defs><path d="M494.933333 858.453333c-167.253333 0-302.08-134.826667-302.08-302.08 0-153.6 114.346667-281.6 266.24-300.373333 6.826667 0 13.653333 1.706667 18.773334 5.12 5.12 5.12 8.533333 10.24 8.533333 17.066667v281.6l286.72 5.12c6.826667 0 13.653333 3.413333 17.066667 8.533333 5.12 5.12 6.826667 11.946667 5.12 18.773333C776.533333 744.106667 648.533333 858.453333 494.933333 858.453333zM440.32 307.2c-116.053333 25.6-199.68 128-199.68 249.173333 0 139.946667 114.346667 256 256 256 121.173333 0 223.573333-83.626667 249.173333-199.68l-281.6-5.12c-11.946667 0-22.186667-10.24-22.186666-23.893333V307.2z" p-id="2181" fill="#d8d8d8"></path><path d="M843.093333 515.413333h-290.133333c-13.653333 0-23.893333-10.24-23.893333-23.893333V208.213333c0-6.826667 3.413333-13.653333 8.533333-17.066666 5.12-5.12 11.946667-6.826667 18.773333-5.12 157.013333 25.6 281.6 146.773333 308.906667 303.786666 1.706667 6.826667 0 13.653333-5.12 18.773334-3.413333 3.413333-10.24 6.826667-17.066667 6.826666z m-267.946666-46.08h237.226666c-30.72-114.346667-122.88-203.093333-237.226666-232.106666v232.106666z" p-id="2182" fill="#d8d8d8"></path></svg>