<?xml version="1.0" encoding="utf-8"?>
<!-- Generator: Adobe Illustrator 17.0.0, SVG Export Plug-In . SVG Version: 6.00 Build 0)  -->
<!DOCTYPE svg PUBLIC "-//W3C//DTD SVG 1.1//EN" "http://www.w3.org/Graphics/SVG/1.1/DTD/svg11.dtd">
<svg version="1.1" id="图层_1" xmlns="http://www.w3.org/2000/svg" xmlns:xlink="http://www.w3.org/1999/xlink" x="0px" y="0px"
	 width="200px" height="200px" viewBox="0 0 200 200" enable-background="new 0 0 200 200" xml:space="preserve">
<path fill="#9B9B9B" d="M187.317,162.341c0,3.448-2.796,6.244-6.244,6.244H18.732c-3.448,0-6.244-2.796-6.244-6.244V37.463
	c0-3.448,2.796-6.244,6.244-6.244h162.341c3.448,0,6.244,2.796,6.244,6.244L187.317,162.341L187.317,162.341z M173.268,74.927
	H26.537v79.61h146.732V74.927z M55.47,86.69l28.698,28.698c0.61,0.61,0.61,1.598,0,2.208c0,0,0,0,0,0l-7.657,7.658l-0.002,0.001
	L55.47,146.293c-0.61,0.61-1.598,0.61-2.207,0l-6.623-6.622c-0.61-0.61-0.61-1.598,0-2.208c0,0,0,0,0,0l20.972-20.972L46.64,95.52
	c-0.61-0.61-0.61-1.598,0-2.208c0,0,0,0,0,0l6.623-6.622C53.872,86.08,54.86,86.08,55.47,86.69L55.47,86.69z M160.78,112.39
	c0.862,0,1.561,0.699,1.561,1.561v9.366c0,0.862-0.699,1.561-1.561,1.561h-46.829c-0.862,0-1.561-0.699-1.561-1.561v-9.366
	c0-0.862,0.699-1.561,1.561-1.561H160.78z M173.268,45.268H26.537v17.171h146.732V45.268z"/>
</svg>
