<?xml version="1.0" standalone="no"?><!DOCTYPE svg PUBLIC "-//W3C//DTD SVG 1.1//EN" "http://www.w3.org/Graphics/SVG/1.1/DTD/svg11.dtd"><svg t="1612811091604" class="icon" viewBox="0 0 1024 1024" version="1.1" xmlns="http://www.w3.org/2000/svg" p-id="29628" xmlns:xlink="http://www.w3.org/1999/xlink" width="128" height="128"><defs><style type="text/css"></style></defs><path d="M941.450356 4.969217H83.968A40.950058 40.950058 0 0 0 46.64668 29.130977C40.071871 43.836479 42.737916 61.085411 53.436893 73.078472l301.281346 337.934913v353.54677c0 12.433812 5.527612 24.014291 15.171107 31.767198l76.143845 61.612323a40.92189 40.92189 0 0 0 25.67622 9.100013c12.400673 0 23.992751-5.520984 31.79868-15.146252 6.879689-8.485282 10.039508-19.126265 8.906148-29.972712-1.139987-10.861359-6.453851-20.629126-14.957359-27.508816l-60.971081-49.345864V395.472777c0-10.064362-3.670162-19.734369-10.342731-27.22879L175.185191 86.774887h674.239379L598.977036 368.043495a40.678317 40.678317 0 0 0-10.549852 27.391172v582.705708c0 22.542913 18.342524 40.887094 40.887094 40.887094 22.536285 0 40.880466-18.344181 40.880466-40.887094V411.131029L971.779314 73.247482c10.816621-11.961579 13.580427-29.230395 7.035443-43.99389-6.536699-14.750239-21.209061-24.284375-37.364401-24.284375z m0 0" p-id="29629" fill="#585959"></path></svg>