<?xml version="1.0" standalone="no"?><!DOCTYPE svg PUBLIC "-//W3C//DTD SVG 1.1//EN" "http://www.w3.org/Graphics/SVG/1.1/DTD/svg11.dtd"><svg t="1612849765268" class="icon" viewBox="0 0 1024 1024" version="1.1" xmlns="http://www.w3.org/2000/svg" p-id="34963" xmlns:xlink="http://www.w3.org/1999/xlink" width="128" height="128"><defs><style type="text/css"></style></defs><path d="M856.974222 240.810667c10.24 11.264 10.24 28.216889 0.568889 39.480889l-2.616889 2.702222-58.993778 53.191111c49.692444 40.106667 89.941333 90.197333 115.228445 146.944 0.768 1.763556 4.551111 11.064889 4.551111 20.337778a51.2 51.2 0 0 1-3.726222 18.716444C847.985778 669.354667 681.955556 772.266667 512 772.266667a448 448 0 0 1-164.238222-31.744l-84.195556 75.946666a29.866667 29.866667 0 0 1-42.752-41.528889l2.616889-2.673777 591.36-533.504a29.866667 29.866667 0 0 1 42.183111 2.048zM512 234.666667c69.347556 0 137.955556 17.152 199.196444 47.445333l-96.711111 87.779556A169.244444 169.244444 0 0 0 512 335.445333c-93.184 0-169.443556 75.662222-169.443556 168.021334 0 32.824889 9.614222 63.544889 26.197334 89.486222L258.275556 693.219556c-63.886222-43.377778-115.484444-102.286222-145.294223-170.780445a41.699556 41.699556 0 0 1-3.697777-18.972444 45.568 45.568 0 0 1 4.209777-20.195556C177.834667 336.896 341.788444 234.666667 512 234.666667z m159.886222 213.418666l-53.873778 48.64c0.170667 2.218667 0.227556 4.465778 0.227556 6.741334 0 57.912889-47.815111 105.358222-106.24 105.358222-5.688889 0-11.292444-0.426667-16.782222-1.308445l-53.873778 48.583112a169.073778 169.073778 0 0 0 70.656 15.388444c93.184 0 169.386667-75.662222 169.386667-168.021333 0-19.370667-3.356444-38.030222-9.500445-55.381334zM512 398.108444c19.968 0 38.684444 5.518222 54.727111 15.132445l-150.186667 136.334222a103.736889 103.736889 0 0 1-10.808888-46.108444c0-57.912889 47.843556-105.358222 106.268444-105.358223z" fill="#437cba" p-id="34964"></path></svg>