<?xml version="1.0" encoding="utf-8"?>
<!-- Generator: Adobe Illustrator 17.0.0, SVG Export Plug-In . SVG Version: 6.00 Build 0)  -->
<!DOCTYPE svg PUBLIC "-//W3C//DTD SVG 1.1//EN" "http://www.w3.org/Graphics/SVG/1.1/DTD/svg11.dtd">
<svg version="1.1" id="图层_1" xmlns="http://www.w3.org/2000/svg" xmlns:xlink="http://www.w3.org/1999/xlink" x="0px" y="0px"
	 width="128px" height="128px" viewBox="0 0 128 128" enable-background="new 0 0 128 128" xml:space="preserve">
<path fill="#9B9B9B" d="M64,128C28.8,128,0,99.2,0,64S28.8,0,64,0s64,28.8,64,64S99.2,128,64,128z M64,9.2C33.6,9.2,9.2,33.6,9.2,64
	s24.4,54.8,54.8,54.8s54.8-24.4,54.8-54.8S94.4,9.2,64,9.2z"/>
<path fill="#9B9B9B" d="M104.4,52.8c0.4-0.4,0.4-0.8-0.4-0.8l-26.4-4c-0.8,0-1.2-0.8-1.6-1.2L64.4,23.2c-0.4-0.4-0.8-0.4-1.2,0
	L51.6,46.8C51.2,47.2,50.4,48,50,48l-26.4,4c-0.8,0-0.8,0.4-0.4,0.8L42,71.2c0.4,0.4,0.8,1.2,0.8,2l-4.4,26c0.4,0.8,0.4,0.8,1.2,0.8
	l23.6-12.4c0.4-0.4,1.6-0.4,2,0L88.8,100c0.4,0.4,0.8,0,0.8-0.4l-4.4-26c0-0.8,0-1.6,0.8-2L104.4,52.8z"/>
</svg>
