<?xml version="1.0" standalone="no"?><!DOCTYPE svg PUBLIC "-//W3C//DTD SVG 1.1//EN" "http://www.w3.org/Graphics/SVG/1.1/DTD/svg11.dtd"><svg t="1612860823046" class="icon" viewBox="0 0 1152 1024" version="1.1" xmlns="http://www.w3.org/2000/svg" p-id="44624" xmlns:xlink="http://www.w3.org/1999/xlink" width="144" height="128"><defs><style type="text/css"></style></defs><path d="M576 0C253 0 0 156.96 0 357.34c0 96.66 59.24 186.48 166.88 253.2 8.34 5.18 17.38 10.24 26.88 15.3-11.22 81.78 71.1 147.5 171.3 140.9a164.82 164.82 0 0 1 7.58 54.22c-1.26 59.88-52.44 107.04-112.32 107.04H96a32 32 0 0 0-32 32v32a32 32 0 0 0 32 32h164.12c114 0 208-92 208.56-206.14a250.1 250.1 0 0 0-13.42-81.04 143.54 143.54 0 0 0 30.44-26.96c29.76 2.84 59.8 4.8 90.3 4.8 323 0 576-156.94 576-357.32S899 0 576 0z m0 618.66c-22.7 0-44.92-1.76-67.1-3.52-14.38-58.88-79.08-103.34-156.9-103.34-40.76 0-77.54 12.56-105.8 32.64-9.8-5.12-20.24-10.22-28.7-15.48C139.12 480.38 96 419.44 96 357.34 96 215.68 315.82 96 576 96s480 119.68 480 261.34-219.82 261.32-480 261.32z" p-id="44625" fill="#437cba"></path></svg>