<?xml version="1.0" encoding="utf-8"?>
<!-- Generator: Adobe Illustrator 17.0.0, SVG Export Plug-In . SVG Version: 6.00 Build 0)  -->
<!DOCTYPE svg PUBLIC "-//W3C//DTD SVG 1.1//EN" "http://www.w3.org/Graphics/SVG/1.1/DTD/svg11.dtd">
<svg version="1.1" id="图层_1" xmlns="http://www.w3.org/2000/svg" xmlns:xlink="http://www.w3.org/1999/xlink" x="0px" y="0px"
	 width="200px" height="200px" viewBox="0 0 200 200" enable-background="new 0 0 200 200" xml:space="preserve">
<path fill="#9B9B9B" d="M163.848,12.5H55.156c-9.609,0-17.402,7.852-17.402,17.5v17.5H18.75v11.66h18.984v11.66H18.75v11.66h18.984
	v11.66H18.75v11.66h18.984v11.66H18.75v11.66h18.984v40.84c0,9.648,7.812,17.5,17.402,17.5h108.691
	c9.609,0,17.402-7.852,17.402-17.5V30C181.25,20.352,173.437,12.5,163.848,12.5L163.848,12.5z M169.648,170
	c0,3.223-2.598,5.84-5.801,5.84H55.156c-3.203,0-5.801-2.617-5.801-5.84v-40.84h11.602V117.5H49.355v-11.66h11.602V94.18H49.355
	V82.52h11.602v-11.66H49.355v-11.66h11.602v-11.66H49.355v-17.5c0-3.223,2.598-5.84,5.801-5.84h108.691
	c3.203,0,5.801,2.617,5.801,5.84V170L169.648,170z"/>
<path fill="#9B9B9B" d="M74.512,35.84h83.535V82.5H74.512V35.84z"/>
</svg>
