<?xml version="1.0" standalone="no"?><!DOCTYPE svg PUBLIC "-//W3C//DTD SVG 1.1//EN" "http://www.w3.org/Graphics/SVG/1.1/DTD/svg11.dtd"><svg t="1612804142511" class="icon" viewBox="0 0 1024 1024" version="1.1" xmlns="http://www.w3.org/2000/svg" p-id="5633" xmlns:xlink="http://www.w3.org/1999/xlink" width="128" height="128"><defs><style type="text/css"></style></defs><path d="M921.6 51.2a51.2 51.2 0 0 1 51.2 51.2v153.6a51.2 51.2 0 0 1-51.2 51.2h-153.6a51.2 51.2 0 0 1-51.2-51.2V204.8H409.6v307.2h307.2V460.8a51.2 51.2 0 0 1 51.2-51.2h153.6a51.2 51.2 0 0 1 51.2 51.2v153.6a51.2 51.2 0 0 1-51.2 51.2h-153.6a51.2 51.2 0 0 1-51.2-51.2v-51.2H409.6v307.2h307.2v-51.2a51.2 51.2 0 0 1 51.2-51.2h153.6a51.2 51.2 0 0 1 51.2 51.2v153.6a51.2 51.2 0 0 1-51.2 51.2h-153.6a51.2 51.2 0 0 1-51.2-51.2v-51.2H384a25.6 25.6 0 0 1-25.1904-20.992L358.4 896V563.2H256v77.6704a51.2 51.2 0 0 1-51.2 51.2H51.2a51.2 51.2 0 0 1-51.2-51.2v-204.8a51.2 51.2 0 0 1 51.2-51.2h153.6a51.2 51.2 0 0 1 51.2 51.2V512h102.4V179.2a25.6 25.6 0 0 1 20.992-25.1904L384 153.6H716.8V102.4a51.2 51.2 0 0 1 51.2-51.2h153.6z m0 768h-153.6v153.6h153.6v-153.6zM204.8 436.0704H51.2v204.8h153.6v-204.8zM921.6 460.8h-153.6v153.6h153.6V460.8z m0-358.4h-153.6v153.6h153.6V102.4z" fill="#d8d8d8" p-id="5634"></path></svg>