<?xml version="1.0" encoding="utf-8"?>
<!-- Generator: Adobe Illustrator 17.0.0, SVG Export Plug-In . SVG Version: 6.00 Build 0)  -->
<!DOCTYPE svg PUBLIC "-//W3C//DTD SVG 1.1//EN" "http://www.w3.org/Graphics/SVG/1.1/DTD/svg11.dtd">
<svg version="1.1" id="图层_1" xmlns="http://www.w3.org/2000/svg" xmlns:xlink="http://www.w3.org/1999/xlink" x="0px" y="0px"
	 width="200px" height="200px" viewBox="0 0 200 200" enable-background="new 0 0 200 200" xml:space="preserve">
<path fill="#9B9B9B" d="M133.309,31.468l18.97,18.432l-47.4,40.337L72.693,63.148L21.737,104.69v17.944l50.956-41.538l32.185,27.082
	l57.257-48.71l15.893,15.447V31.468H133.309z"/>
<path fill="#9B9B9B" d="M165.076,169.979h-32.484v-68.065l32.484-27.81V169.979z M143.09,159.481h11.49V96.909l-11.49,9.837V159.481
	z M128.144,169.979H95.667v-52.876l9.643,8.164l22.834-19.548V169.979z M106.164,159.481h11.483v-30.958l-11.483,9.83V159.481z
	 M91.222,169.979H58.739v-56.984l16.302-13.35l16.181,13.695L91.222,169.979z M69.236,159.481h11.49v-41.274l-5.795-4.905
	l-5.695,4.663V159.481z M54.3,169.979H21.82l0-26.697l32.48-26.633V169.979z M32.317,159.481h11.486l0-20.651l-11.486,9.418
	L32.317,159.481z"/>
</svg>
