<?xml version="1.0" standalone="no"?><!DOCTYPE svg PUBLIC "-//W3C//DTD SVG 1.1//EN" "http://www.w3.org/Graphics/SVG/1.1/DTD/svg11.dtd"><svg t="1612851292846" class="icon" viewBox="0 0 1024 1024" version="1.1" xmlns="http://www.w3.org/2000/svg" p-id="38959" xmlns:xlink="http://www.w3.org/1999/xlink" width="128" height="128"><defs><style type="text/css"></style></defs><path d="M512 60.992a448 448 0 1 0 0 896 448 448 0 0 0 0-896z m263.04 711.04a370.56 370.56 0 1 1-522.944-525.12 370.56 370.56 0 0 1 522.88 525.056zM437.76 279.808a40 40 0 0 0-44.928 19.584L295.808 475.136a8 8 0 0 0 7.04 11.84h54.848a8 8 0 0 0 6.976-4.096l39.296-71.232v310.4c0 4.352 3.584 7.936 8 7.936h48a8 8 0 0 0 8.064-8V318.592a40 40 0 0 0-30.208-38.784z m223.232 247.296l-39.04 70.784V288a8 8 0 0 0-8-8h-48a8 8 0 0 0-8 8v403.008a40 40 0 0 0 75.072 19.2l96.832-175.36a8 8 0 0 0-7.04-11.84h-54.784a8 8 0 0 0-7.04 4.096z" p-id="38960" fill="#bfbfbf"></path></svg>