<?xml version="1.0" encoding="utf-8"?>
<!-- Generator: Adobe Illustrator 17.0.0, SVG Export Plug-In . SVG Version: 6.00 Build 0)  -->
<!DOCTYPE svg PUBLIC "-//W3C//DTD SVG 1.1//EN" "http://www.w3.org/Graphics/SVG/1.1/DTD/svg11.dtd">
<svg version="1.1" id="图层_1" xmlns="http://www.w3.org/2000/svg" xmlns:xlink="http://www.w3.org/1999/xlink" x="0px" y="0px"
	 width="200px" height="200px" viewBox="0 0 200 200" enable-background="new 0 0 200 200" xml:space="preserve">
<path fill="#9B9B9B" d="M58.066,161.621L26.66,138.496c-1.465-1.074-3.535-0.176-3.73,1.621c-1.523,13.574-3.965,35.723-4.16,37.578
	c-0.254,2.344,2.012,4.043,4.199,3.105c2.344-1.016,22.383-9.766,34.648-15.117C59.277,164.961,59.531,162.715,58.066,161.621
	L58.066,161.621z M98.691,30.801l39.805,29.297c1.035,0.781,2.52,0.566,3.281-0.488l1.074-1.465
	c2.715-3.691,5.84-12.813,2.129-15.527l-30.176-22.227c-3.691-2.734-12.812,1.973-15.547,5.664l-1.074,1.465
	C97.422,28.555,97.637,30.039,98.691,30.801z M131.094,68.711L91.309,39.395c-1.035-0.781-2.52-0.547-3.281,0.488l-59.551,83.594
	c-0.781,1.035-0.547,2.52,0.488,3.281l39.824,29.316c1.035,0.781,2.52,0.547,3.281-0.488l59.551-83.594
	C132.383,70.938,132.168,69.473,131.094,68.711z M122.422,141.387c0,3.887,2.617,7.051,5.82,7.051h46.465
	c3.223,0,5.82-3.145,5.82-7.051c0-3.867-2.617-7.012-5.82-7.012h-46.465C125.039,134.355,122.422,137.52,122.422,141.387z
	 M175.449,166.855H82.598c-3.203,0-5.801,3.125-5.801,7.031c0,3.887,2.598,7.031,5.801,7.031h92.852
	c3.203,0,5.801-3.145,5.801-7.031C181.25,169.98,178.652,166.855,175.449,166.855z"/>
</svg>
