<?xml version="1.0" standalone="no"?><!DOCTYPE svg PUBLIC "-//W3C//DTD SVG 1.1//EN" "http://www.w3.org/Graphics/SVG/1.1/DTD/svg11.dtd"><svg t="1612805008066" class="icon" viewBox="0 0 1024 1024" version="1.1" xmlns="http://www.w3.org/2000/svg" p-id="9259" xmlns:xlink="http://www.w3.org/1999/xlink" width="128" height="128"><defs><style type="text/css"></style></defs><path d="M910.222222 647.964444a426.097778 426.097778 0 0 0 9.102222-85.333333 409.6 409.6 0 0 0-284.444444-387.413333 125.724444 125.724444 0 0 0-251.448889 0 409.6 409.6 0 0 0-284.444444 387.413333 388.551111 388.551111 0 0 0 14.791111 85.333333 122.88 122.88 0 0 0-30.151111 26.737778A126.862222 126.862222 0 0 0 105.813333 853.333333a122.88 122.88 0 0 0 77.368889 26.737778 129.706667 129.706667 0 0 0 56.888889-13.084444 407.893333 407.893333 0 0 0 545.564445 0 124.017778 124.017778 0 0 0 38.115555 11.946666 92.16 92.16 0 0 0 17.635556 0A125.724444 125.724444 0 0 0 910.222222 647.964444zM512 113.777778a69.973333 69.973333 0 0 1 0 139.377778 68.266667 68.266667 0 0 1-48.924444-20.48 67.697778 67.697778 0 0 1-20.48-49.493334A69.404444 69.404444 0 0 1 512 113.777778zM183.182222 822.044444a69.404444 69.404444 0 0 1-42.666666-14.791111A69.404444 69.404444 0 0 1 183.751111 682.666667a72.248889 72.248889 0 0 1 42.666667 14.222222 71.68 71.68 0 0 1 26.168889 46.648889 69.404444 69.404444 0 0 1-69.404445 77.937778z m101.262222 6.826667A126.293333 126.293333 0 0 0 183.751111 625.777778 72.248889 72.248889 0 0 0 170.666667 625.777778a359.537778 359.537778 0 0 1-6.826667-65.422222A353.28 353.28 0 0 1 398.222222 232.675556a126.862222 126.862222 0 0 0 233.244445 0 353.28 353.28 0 0 1 234.382222 329.955555 347.022222 347.022222 0 0 1-9.102222 63.146667h-16.497778a126.862222 126.862222 0 0 0-125.155556 108.657778 128 128 0 0 0 24.462223 94.435555 347.591111 347.591111 0 0 1-455.111112 0z m556.373334-6.826667h-9.671111a69.404444 69.404444 0 0 1 9.102222-139.377777H853.333333a69.404444 69.404444 0 0 1-9.671111 138.24z" p-id="9260" fill="#d8d8d8"></path></svg>