<?xml version="1.0" standalone="no"?><!DOCTYPE svg PUBLIC "-//W3C//DTD SVG 1.1//EN" "http://www.w3.org/Graphics/SVG/1.1/DTD/svg11.dtd"><svg t="1612811023048" class="icon" viewBox="0 0 1024 1024" version="1.1" xmlns="http://www.w3.org/2000/svg" p-id="29274" xmlns:xlink="http://www.w3.org/1999/xlink" width="128" height="128"><defs><style type="text/css"></style></defs><path d="M495.86884 859.119746H250.574787c-44.329989 0-80.305439-34.77988-80.30544-77.600056V244.445235c0-42.820176 35.97545-77.600056 80.30544-77.600057v0.079464H777.698201c44.250526 0 80.225975 34.859344 80.225975 77.600056v312.70829h59.453404V244.524698c0-75.609848-62.715034-137.132924-139.758843-137.132924H250.574787c-77.04381 0.079464-139.758843 61.523076-139.758843 137.132924V781.599153c0 75.530384 62.63557 137.05346 139.758843 137.053461h245.294053v-59.532868z" p-id="29275" fill="#585959"></path><path d="M915.387372 647.092148l-426.99897-254.049524c-15.679661-9.311718-25.786018-2.308063-22.444924 15.600198L556.756205 900.108642c3.341093 17.908261 14.563556 20.375252 24.991379 5.490229 0 0 58.019443-83.16975 105.614673-133.950758l96.461884 143.659795c5.89116 8.755471 17.828797 11.063534 26.504804 5.013446l45.446096-31.438786c8.755471-6.050088 11.063534-18.146653 5.09291-26.981587l-96.302956-143.421404c61.046293-25.309235 147.242892-46.638053 147.242892-46.638053 17.586794-4.374123 19.179683-15.517122 3.579485-24.749376z" p-id="29276" fill="#585959"></path></svg>