<?xml version="1.0" encoding="utf-8"?>
<!-- Generator: Adobe Illustrator 17.0.0, SVG Export Plug-In . SVG Version: 6.00 Build 0)  -->
<!DOCTYPE svg PUBLIC "-//W3C//DTD SVG 1.1//EN" "http://www.w3.org/Graphics/SVG/1.1/DTD/svg11.dtd">
<svg version="1.1" id="图层_1" xmlns="http://www.w3.org/2000/svg" xmlns:xlink="http://www.w3.org/1999/xlink" x="0px" y="0px"
	 width="200.195px" height="200px" viewBox="0 0 200.195 200" enable-background="new 0 0 200.195 200" xml:space="preserve">
<path fill="#9B9B9B" d="M125.425,22.106h-50.85c-1.787,0-3.237,1.45-3.237,3.237V174.65c0,1.788,1.45,3.238,3.237,3.238h50.85
	c1.787,0,3.238-1.45,3.238-3.238V25.344C128.663,23.556,127.213,22.106,125.425,22.106z M100,149.444
	c-6.25,0-11.312-5.069-11.312-11.312c0-6.244,5.069-11.312,11.312-11.312c6.25,0,11.312,5.069,11.312,11.312
	C111.312,144.375,106.244,149.444,100,149.444z M120.812,91.688c0,1.787-1.45,3.237-3.237,3.237H82.431
	c-1.787,0-3.237-1.45-3.237-3.237V88.45c0-1.794,1.45-3.244,3.237-3.244h35.144c1.787,0,3.237,1.45,3.237,3.244V91.688z
	 M120.812,75.494c0,1.788-1.45,3.237-3.237,3.237H82.431c-1.787,0-3.237-1.45-3.237-3.237V72.25c0-1.787,1.45-3.237,3.237-3.237
	h35.144c1.787,0,3.237,1.45,3.237,3.237V75.494z M120.812,59.3c0,1.794-1.45,3.237-3.237,3.237H82.431
	c-1.787,0-3.237-1.45-3.237-3.237v-3.237c0-1.787,1.45-3.237,3.237-3.237h35.144c1.787,0,3.237,1.45,3.237,3.237V59.3z
	 M120.812,43.106c0,1.787-1.45,3.237-3.237,3.237H82.431c-1.787,0-3.237-1.45-3.237-3.237v-3.238c0-1.794,1.45-3.244,3.237-3.244
	h35.144c1.787,0,3.237,1.45,3.237,3.238V43.1V43.106z"/>
<path fill="#9B9B9B" d="M200,39.35c0-1.525-1.287-2.881-2.881-3.025c-15.075-1.369-30.156-2.744-45.231-4.106
	c-0.169-0.019-0.637,0-1.137,0.144l-17.625,4.45V175.3l18.244,2.581c0.219,0.05,0.506,0,0.525,0
	c15.075-1.369,30.156-2.894,45.231-4.262c1.594-0.144,2.881-1.5,2.881-3.031c0-35.219,0-96.006,0-131.231L200,39.35z
	 M155.994,48.838c0-1.638,1.288-2.875,2.881-2.763c10.419,0.737,20.837,1.475,31.256,2.206c1.594,0.112,2.881,1.456,2.881,3v2.794
	c0,1.544-1.287,2.725-2.881,2.631c-10.419-0.594-20.837-1.194-31.256-1.781c-1.594-0.094-2.881-1.494-2.881-3.131v-2.962V48.838z
	 M193.012,96.044c0,1.544-1.287,2.812-2.881,2.825c-10.419,0.113-20.837,0.225-31.256,0.338c-1.594,0.019-2.881-1.294-2.881-2.931
	v-2.963c0-1.637,1.288-2.962,2.881-2.962c10.419,0.031,20.837,0.062,31.256,0.087c1.594,0.006,2.881,1.263,2.881,2.806V96.044z
	 M190.131,84.812c-10.419-0.125-20.837-0.244-31.256-0.369c-1.594-0.019-2.881-1.363-2.881-3v-2.962
	c0-1.638,1.288-2.931,2.881-2.894c10.419,0.262,20.837,0.525,31.256,0.794c1.594,0.037,2.881,1.325,2.881,2.875
	c0,1.119,0,1.675,0,2.794C193.012,83.594,191.725,84.831,190.131,84.812z M193.012,68.069c0,1.544-1.287,2.75-2.881,2.7
	c-10.419-0.356-20.837-0.719-31.256-1.075c-1.594-0.056-2.881-1.425-2.881-3.062v-2.962c0-1.638,1.288-2.9,2.881-2.825
	c10.419,0.494,20.837,1,31.256,1.5c1.594,0.075,2.881,1.388,2.881,2.938v2.8V68.069z"/>
<path fill="#9B9B9B" d="M48.112,32.212c-15.075,1.369-30.156,2.738-45.231,4.106C1.287,36.462,0,37.819,0,39.344
	c0,35.219,0,96.013,0,131.231c0,1.525,1.288,2.881,2.881,3.031c15.075,1.369,30.156,2.894,45.231,4.262c0.019,0,0.306,0.05,0.525,0
	l18.244-2.581V36.8l-17.625-4.45c-0.5-0.144-0.975-0.156-1.138-0.144L48.112,32.212z M44.006,96.269c0,1.637-1.287,2.95-2.881,2.931
	c-10.419-0.112-20.838-0.225-31.263-0.338c-1.594-0.012-2.881-1.281-2.881-2.825v-2.8c0-1.55,1.287-2.8,2.881-2.806
	c10.419-0.025,20.838-0.056,31.263-0.088c1.594,0,2.881,1.319,2.881,2.963V96.269z M44.006,81.444c0,1.638-1.287,2.981-2.881,3
	c-10.419,0.125-20.838,0.244-31.263,0.369c-1.594,0.019-2.881-1.219-2.881-2.763c0-1.119,0-1.675,0-2.794
	c0-1.55,1.287-2.831,2.881-2.875c10.419-0.269,20.838-0.531,31.263-0.794c1.594-0.044,2.881,1.25,2.881,2.894V81.444z
	 M44.006,66.625c0,1.637-1.287,3.013-2.881,3.062c-10.419,0.356-20.838,0.719-31.263,1.075c-1.594,0.05-2.881-1.156-2.881-2.7v-2.8
	c0-1.55,1.287-2.856,2.881-2.938c10.419-0.5,20.838-1.006,31.263-1.5c1.594-0.075,2.881,1.187,2.881,2.825v2.969V66.625z
	 M44.006,51.8c0,1.638-1.287,3.038-2.881,3.131c-10.419,0.594-20.838,1.188-31.263,1.781c-1.594,0.088-2.881-1.094-2.881-2.631
	v-2.794c0-1.55,1.287-2.888,2.881-3c10.419-0.737,20.838-1.475,31.263-2.206c1.594-0.112,2.881,1.125,2.881,2.763v2.963V51.8z"/>
</svg>
