<?xml version="1.0" standalone="no"?><!DOCTYPE svg PUBLIC "-//W3C//DTD SVG 1.1//EN" "http://www.w3.org/Graphics/SVG/1.1/DTD/svg11.dtd"><svg t="1612809794894" class="icon" viewBox="0 0 1024 1024" version="1.1" xmlns="http://www.w3.org/2000/svg" p-id="17510" xmlns:xlink="http://www.w3.org/1999/xlink" width="128" height="128"><defs><style type="text/css"></style></defs><path d="M163.45874023 279.63916016h697.08251954c25.9552002 0 46.96655273-21.01135254 46.96655273-46.96655274s-21.01135254-46.96655273-46.96655273-46.96655273H163.45874023C137.50354003 185.70605469 116.4921875 206.71740722 116.4921875 232.67260742s21.01135254 46.96655273 46.96655273 46.96655274z m697.08251954 185.39428711H163.45874023C137.50354003 465.03344727 116.4921875 486.0447998 116.4921875 512c0 25.9552002 21.01135254 46.96655273 46.96655273 46.96655273h697.08251954c25.9552002 0 46.96655273-21.01135254 46.96655273-46.96655273s-21.01135254-46.96655273-46.96655273-46.96655273z m0 279.32739257H163.45874023C137.50354003 744.36083984 116.4921875 765.37219239 116.4921875 791.32739258s21.01135254 46.96655273 46.96655273 46.96655273h697.08251954c25.9552002 0 46.96655273-21.01135254 46.96655273-46.96655273s-21.01135254-46.96655273-46.96655273-46.96655274z" p-id="17511" fill="#ffffff"></path></svg>