<?xml version="1.0" standalone="no"?><!DOCTYPE svg PUBLIC "-//W3C//DTD SVG 1.1//EN" "http://www.w3.org/Graphics/SVG/1.1/DTD/svg11.dtd"><svg t="1614672016628" class="icon" viewBox="0 0 1024 1024" version="1.1" xmlns="http://www.w3.org/2000/svg" p-id="8622" xmlns:xlink="http://www.w3.org/1999/xlink" width="128" height="128"><defs><style type="text/css"></style></defs><path d="M652.565 501.764H440.908c-11.696 0-21.179 8.546-21.179 19.091 0 10.596 9.484 19.143 21.179 19.143h211.656c11.719 0 21.165-8.546 21.165-19.143 0-10.545-9.446-19.091-21.164-19.091zM384.468 323.232h-14.107c-11.708 0-21.179 8.546-21.179 19.143 0 10.546 9.471 19.118 21.179 19.118h14.107c11.696 0 21.167-8.571 21.167-19.118-0.001-10.597-9.472-19.143-21.167-19.143zM384.468 412.498h-14.107c-11.708 0-21.179 8.546-21.179 19.116 0 10.571 9.471 19.143 21.179 19.143h14.107c11.696 0 21.167-8.571 21.167-19.143-0.001-10.57-9.472-19.116-21.167-19.116zM384.468 501.764h-14.107c-11.708 0-21.179 8.546-21.179 19.091 0 10.596 9.471 19.143 21.179 19.143h14.107c11.696 0 21.167-8.546 21.167-19.143-0.001-10.545-9.472-19.091-21.167-19.091zM652.565 412.498H440.908c-11.696 0-21.179 8.546-21.179 19.116 0 10.571 9.484 19.143 21.179 19.143h211.656c11.719 0 21.165-8.571 21.165-19.143 0-10.57-9.446-19.116-21.164-19.116z" p-id="8623" fill="#585959"></path><path d="M511.444 63.507c-247.33 0-447.828 200.497-447.828 447.828 0 247.328 200.498 447.827 447.828 447.827s447.828-200.498 447.828-447.827c0-247.331-200.499-447.828-447.828-447.828z m205.807 788.971L511.469 729.451 305.635 852.478V236.09s25.552-53.878 167.986-65.899h75.657c142.447 12.045 167.973 65.899 167.973 65.899v616.388z" p-id="8624" fill="#585959"></path><path d="M652.565 323.232H440.908c-11.696 0-21.179 8.546-21.179 19.143 0 10.546 9.484 19.118 21.179 19.118h211.656c11.719 0 21.165-8.571 21.165-19.118 0-10.597-9.446-19.143-21.164-19.143z" p-id="8625" fill="#585959"></path></svg>