<?xml version="1.0" standalone="no"?><!DOCTYPE svg PUBLIC "-//W3C//DTD SVG 1.1//EN" "http://www.w3.org/Graphics/SVG/1.1/DTD/svg11.dtd"><svg t="1614672274339" class="icon" viewBox="0 0 1024 1024" version="1.1" xmlns="http://www.w3.org/2000/svg" p-id="10457" xmlns:xlink="http://www.w3.org/1999/xlink" width="128" height="128"><defs><style type="text/css"></style></defs><path d="M800 896c-4.23 0-8.48-0.84-12.5-2.54L512 776.58 236.5 893.46a31.995 31.995 0 0 1-30.16-2.78A31.966 31.966 0 0 1 192 864V192c0-17.67 14.33-32 32-32h576c17.67 0 32 14.33 32 32v672c0 10.74-5.38 20.76-14.33 26.68A32.022 32.022 0 0 1 800 896zM512 709.82c4.25 0 8.5 0.85 12.5 2.54L768 815.66V224H256v591.66l243.5-103.3c4-1.69 8.25-2.54 12.5-2.54z" p-id="10458" fill="#437cba"></path><path d="M413.12 656a31.95 31.95 0 0 1-18.82-6.12 32 32 0 0 1-12.72-31.3l16.04-93.39-67.94-66.15a31.985 31.985 0 0 1-8.11-32.81 31.998 31.998 0 0 1 25.84-21.79l93.91-13.63 41.99-84.99A31.998 31.998 0 0 1 512 288c12.18 0 23.3 6.91 28.69 17.83l41.99 84.99 93.91 13.63a32.005 32.005 0 1 1 17.73 54.6l-67.94 66.15 16.04 93.39c2.06 12-2.87 24.14-12.72 31.3a32.016 32.016 0 0 1-33.7 2.45l-84-44.13-84.01 44.12a31.91 31.91 0 0 1-14.87 3.67z m7.7-197.54l33.5 32.62c7.55 7.35 11 17.95 9.21 28.34l-7.92 46.11 41.5-21.79a32.02 32.02 0 0 1 29.76 0l41.5 21.79-7.92-46.11a32.004 32.004 0 0 1 9.21-28.34l33.5-32.62-46.33-6.73a31.978 31.978 0 0 1-24.09-17.49l-20.75-42-20.75 42a31.978 31.978 0 0 1-24.09 17.49l-46.33 6.73z" p-id="10459" fill="#437cba"></path></svg>