<svg version="1.1" width="222.07" height="200" viewBox="0 0 222.07 200" xmlns="http://www.w3.org/2000/svg" xmlns:xlink="http://www.w3.org/1999/xlink" id="图层_1" overflow="hidden"><path d=" M 144.444 22.222 L 77.778 22.222 C 34.822 22.222 0 57.045 0 100 C 0 142.955 34.822 177.778 77.778 177.778 L 144.445 177.778 C 187.4 177.778 222.223 142.956 222.223 100 C 222.223 57.044 187.4 22.222 144.444 22.222 Z M 144.444 155.556 L 77.778 155.556 C 47.145 155.556 22.222 130.634 22.222 100 C 22.222 69.366 47.144 44.444 77.778 44.444 L 144.445 44.444 C 175.078 44.444 200 69.367 200 100 C 200 130.633 175.078 155.556 144.444 155.556 Z" fill="#2A7EC7"/><path xmlns="http://www.w3.org/2000/svg" d=" M 111.111 100 C 111.113 118.409 96.191 133.335 77.782 133.337 C 59.373 133.339 44.447 118.417 44.445 100.008 C 44.445 100.005 44.445 100.003 44.445 100 C 44.447 81.591 59.373 66.668 77.782 66.671 C 96.188 66.673 111.109 81.594 111.111 100 Z" fill="#2A7EC7" style="&#10;    transform: translate(65px, 0px);&#10;"/></svg>