<?xml version="1.0" encoding="utf-8"?>
<!-- Generator: Adobe Illustrator 17.0.0, SVG Export Plug-In . SVG Version: 6.00 Build 0)  -->
<!DOCTYPE svg PUBLIC "-//W3C//DTD SVG 1.1//EN" "http://www.w3.org/Graphics/SVG/1.1/DTD/svg11.dtd">
<svg version="1.1" id="图层_1" xmlns="http://www.w3.org/2000/svg" xmlns:xlink="http://www.w3.org/1999/xlink" x="0px" y="0px"
	 width="222.07px" height="200px" viewBox="0 0 222.07 200" enable-background="new 0 0 222.07 200" xml:space="preserve">
<path fill="#2A7EC7" d="M144.444,22.222H77.778C34.822,22.222,0,57.045,0,100s34.822,77.778,77.778,77.778h66.667
	c42.955,0,77.778-34.822,77.778-77.778S187.4,22.222,144.444,22.222z M144.444,155.556H77.778
	c-30.633,0-55.556-24.922-55.556-55.556s24.922-55.556,55.556-55.556h66.667C175.078,44.444,200,69.367,200,100
	S175.078,155.556,144.444,155.556z"/>
<path fill="#2A7EC7" d="M111.111,100c0.002,18.409-14.92,33.335-33.329,33.337c-18.409,0.002-33.335-14.92-33.337-33.329
	c0-0.003,0-0.005,0-0.008c0.002-18.409,14.928-33.332,33.337-33.329C96.188,66.673,111.109,81.594,111.111,100z"/>
</svg>
