<?xml version="1.0" standalone="no"?><!DOCTYPE svg PUBLIC "-//W3C//DTD SVG 1.1//EN" "http://www.w3.org/Graphics/SVG/1.1/DTD/svg11.dtd"><svg t="1614672147531" class="icon" viewBox="0 0 1024 1024" version="1.1" xmlns="http://www.w3.org/2000/svg" p-id="9530" xmlns:xlink="http://www.w3.org/1999/xlink" width="128" height="128"><defs><style type="text/css"></style></defs><path d="M932.5 469.5c16.4-15.9 22.2-39.4 15.1-61.1-7-21.8-25.5-37.3-48.1-40.6l-217.2-31.6c-8.5-1.2-15.8-6.5-19.6-14.2L565.5 125.2C555.4 104.7 534.9 92 512 92s-43.4 12.7-53.5 33.3L361.3 322.1c-3.8 7.6-11.1 13-19.6 14.2l-217.2 31.6c-22.6 3.3-41 18.9-48.1 40.6-7.1 21.7-1.3 45.1 15.1 61.1l157.2 153.3c6.1 5.9 8.9 14.6 7.5 23l-37.1 216.3c-3.9 22.5 5.2 44.9 23.7 58.3 10.5 7.6 22.7 11.5 35 11.5 9.5 0 19-2.3 27.8-6.9l194.3-102.2c7.6-4 16.6-4 24.2 0l194.3 102c20.2 10.7 44.3 9 62.8-4.5 18.5-13.4 27.6-35.8 23.7-58.3l-37.1-216.3c-1.4-8.4 1.4-17 7.5-23l157.2-153.3z m-174.8-57.6c-0.7-0.1-1.3-0.2-1.9-0.3l-1.1-0.1h-0.1l-114-16.6c-10.5-1.5-19.5-8.1-24.2-17.6l-47.7-96.7 0.2-0.1c-2-2.8-3.2-6.2-3.2-9.9 0-9.5 7.7-17.2 17.2-17.2 3.8 0 7.2 1.2 10 3.3l39.6 80.2c2.5 5 5.6 9.5 9.2 13.6 5.9 8.8 15.3 15 25.9 16.8 3.2 1 6.4 1.8 9.8 2.3l87.2 12.7c5.2 2.5 8.8 7.9 8.8 14 0 8.5-7 15.6-15.7 15.6z" p-id="9531" fill="#d8d8d8"></path></svg>