<?xml version="1.0" encoding="utf-8"?>
<!-- Generator: Adobe Illustrator 17.0.0, SVG Export Plug-In . SVG Version: 6.00 Build 0)  -->
<!DOCTYPE svg PUBLIC "-//W3C//DTD SVG 1.1//EN" "http://www.w3.org/Graphics/SVG/1.1/DTD/svg11.dtd">
<svg version="1.1" id="图层_1" xmlns="http://www.w3.org/2000/svg" xmlns:xlink="http://www.w3.org/1999/xlink" x="0px" y="0px"
	 width="200px" height="200px" viewBox="0 0 200 200" enable-background="new 0 0 200 200" xml:space="preserve">
<path fill="#9B9B9B" d="M100,116.667c-4.602,0-8.333-3.731-8.333-8.333l0,0v-25C91.667,78.731,95.398,75,100,75
	s8.333,3.731,8.333,8.333v25C108.333,112.936,104.602,116.667,100,116.667C100,116.667,100,116.667,100,116.667z M87.5,137.5
	c0-6.904,5.596-12.5,12.5-12.5c6.904,0,12.5,5.596,12.5,12.5S106.904,150,100,150C93.096,150,87.5,144.404,87.5,137.5z"/>
<path fill="#9B9B9B" d="M85.25,26.8c6.25-11.875,23.25-11.875,29.5,0l69.525,132.1c5.842,11.1-2.192,24.433-14.75,24.433H30.475
	c-12.542,0-20.583-13.333-14.75-24.425L85.25,26.8z M169.533,166.667L100,34.558L30.467,166.667H169.533z"/>
</svg>
